<?xml version="1.0" encoding="UTF-8"?>
<svg xmlns="http://www.w3.org/2000/svg" xmlns:xlink="http://www.w3.org/1999/xlink" viewBox="0 0 408.87 334.66">
  <defs>
    <style>
      .cls-1, .cls-2, .cls-3, .cls-4, .cls-5, .cls-6, .cls-7 {
        fill: none;
        stroke-linecap: round;
        stroke-linejoin: round;
      }

      .cls-1, .cls-3, .cls-6, .cls-7 {
        stroke-width: 2.95px;
      }

      .cls-1, .cls-5 {
        stroke: #fff;
      }

      .cls-8 {
        fill: #010d19;
      }

      .cls-9 {
        fill: url(#linear-gradient-2);
      }

      .cls-2 {
        stroke: #0098ff;
      }

      .cls-2, .cls-4, .cls-5 {
        stroke-width: 1.18px;
      }

      .cls-10 {
        fill: #b3cee8;
      }

      .cls-11 {
        opacity: .08;
      }

      .cls-11, .cls-12, .cls-13, .cls-5, .cls-14 {
        mix-blend-mode: overlay;
      }

      .cls-15, .cls-12 {
        fill: #fff;
      }

      .cls-16 {
        fill: url(#radial-gradient-7);
      }

      .cls-16, .cls-17, .cls-18, .cls-19, .cls-20 {
        mix-blend-mode: color-dodge;
      }

      .cls-12, .cls-5, .cls-14, .cls-21 {
        opacity: .25;
      }

      .cls-22 {
        fill: url(#linear-gradient-17);
      }

      .cls-23 {
        fill: #0049b2;
      }

      .cls-24 {
        fill: url(#linear-gradient-15);
      }

      .cls-25 {
        fill: url(#linear-gradient-18);
      }

      .cls-26 {
        fill: url(#linear-gradient-28);
      }

      .cls-27 {
        fill: url(#linear-gradient-14);
      }

      .cls-28 {
        fill: url(#linear-gradient-20);
      }

      .cls-29 {
        fill: url(#linear-gradient-6);
      }

      .cls-3 {
        stroke: url(#linear-gradient-26);
      }

      .cls-30 {
        isolation: isolate;
      }

      .cls-31 {
        fill: url(#linear-gradient-11);
      }

      .cls-4 {
        stroke: #66d7ff;
      }

      .cls-32 {
        opacity: .35;
      }

      .cls-33 {
        fill: #7189e2;
      }

      .cls-34 {
        fill: url(#radial-gradient-6);
      }

      .cls-35 {
        fill: url(#linear-gradient-10);
      }

      .cls-17 {
        fill: url(#radial-gradient-5);
      }

      .cls-36 {
        fill: url(#radial-gradient);
      }

      .cls-13 {
        opacity: .28;
      }

      .cls-37 {
        fill: #a2a5aa;
      }

      .cls-38 {
        fill: url(#linear-gradient-16);
      }

      .cls-39 {
        fill: #9cacf2;
      }

      .cls-40 {
        fill: url(#linear-gradient-21);
      }

      .cls-41 {
        fill: url(#linear-gradient-5);
      }

      .cls-18 {
        fill: url(#radial-gradient-4);
      }

      .cls-42 {
        fill: #c7cfff;
      }

      .cls-43 {
        fill: url(#radial-gradient-3);
      }

      .cls-19 {
        fill: url(#radial-gradient-8);
      }

      .cls-44 {
        fill: #eef8ff;
      }

      .cls-45 {
        fill: url(#linear-gradient-7);
      }

      .cls-6 {
        stroke: url(#linear-gradient-25);
      }

      .cls-46 {
        fill: url(#linear-gradient-24);
      }

      .cls-47 {
        fill: #ffb7a9;
      }

      .cls-48 {
        fill: url(#linear-gradient-9);
      }

      .cls-49 {
        fill: url(#linear-gradient-22);
      }

      .cls-50 {
        fill: url(#linear-gradient-3);
      }

      .cls-51 {
        fill: url(#linear-gradient);
      }

      .cls-52 {
        fill: url(#linear-gradient-29);
      }

      .cls-7 {
        stroke: url(#linear-gradient-27);
      }

      .cls-53 {
        fill: url(#linear-gradient-23);
      }

      .cls-54 {
        fill: url(#linear-gradient-19);
      }

      .cls-55 {
        fill: url(#linear-gradient-4);
      }

      .cls-56 {
        fill: url(#linear-gradient-8);
      }

      .cls-20 {
        fill: url(#radial-gradient-2);
      }

      .cls-57 {
        fill: #b3b3ff;
        opacity: .86;
      }

      .cls-58 {
        fill: url(#linear-gradient-12);
      }

      .cls-59 {
        fill: url(#linear-gradient-13);
      }

      .cls-60 {
        fill: #002a66;
      }
    </style>
    <linearGradient id="linear-gradient" x1="216.64" y1="25.72" x2="207.54" y2="328.18" gradientUnits="userSpaceOnUse">
      <stop offset="0" stop-color="#1c4259"/>
      <stop offset="1" stop-color="#0b2935"/>
    </linearGradient>
    <radialGradient id="radial-gradient" cx="52.18" cy="30.9" fx="52.18" fy="30.9" r="45.33" gradientTransform="translate(14.62 135.19) scale(1 .88)" gradientUnits="userSpaceOnUse">
      <stop offset="0" stop-color="#3e84ff"/>
      <stop offset=".04" stop-color="#4080ff" stop-opacity=".95"/>
      <stop offset=".32" stop-color="#5269ff" stop-opacity=".62"/>
      <stop offset=".56" stop-color="#6057ff" stop-opacity=".35"/>
      <stop offset=".76" stop-color="#6b4aff" stop-opacity=".16"/>
      <stop offset=".91" stop-color="#7142ff" stop-opacity=".04"/>
      <stop offset="1" stop-color="#7440ff" stop-opacity="0"/>
    </radialGradient>
    <linearGradient id="linear-gradient-2" x1="33.8" y1="37.67" x2="69.43" y2="331.04" gradientUnits="userSpaceOnUse">
      <stop offset="0" stop-color="#3e84ff"/>
      <stop offset="1" stop-color="#7440ff"/>
    </linearGradient>
    <radialGradient id="radial-gradient-2" cx="79.41" cy="164.81" fx="79.41" fy="164.81" r="8.81" gradientUnits="userSpaceOnUse">
      <stop offset="0" stop-color="#fff"/>
      <stop offset="1" stop-color="#000"/>
    </radialGradient>
    <linearGradient id="linear-gradient-3" x1="128.23" y1="-7.59" x2="128.23" y2="104.41" xlink:href="#linear-gradient-2"/>
    <linearGradient id="linear-gradient-4" x1="91.94" y1="51.59" x2="50.25" y2="109.7" xlink:href="#linear-gradient-2"/>
    <linearGradient id="linear-gradient-5" x1="105.74" y1="61.49" x2="64.04" y2="119.6" xlink:href="#linear-gradient-2"/>
    <linearGradient id="linear-gradient-6" x1="99.04" y1="56.68" x2="57.35" y2="114.8" xlink:href="#linear-gradient-2"/>
    <linearGradient id="linear-gradient-7" x1="119.42" y1="76.17" x2="138.99" y2="76.17" xlink:href="#linear-gradient-2"/>
    <linearGradient id="linear-gradient-8" x1="302.35" y1="315.77" x2="301.51" y2="295.6" xlink:href="#linear-gradient-2"/>
    <linearGradient id="linear-gradient-9" x1="279.34" y1="181.69" x2="273.65" y2="275.68" gradientUnits="userSpaceOnUse">
      <stop offset="0" stop-color="#2b2b2b"/>
      <stop offset="1" stop-color="#111"/>
    </linearGradient>
    <linearGradient id="linear-gradient-10" x1="245.76" y1="181.66" x2="253.59" y2="149.82" xlink:href="#linear-gradient-2"/>
    <linearGradient id="linear-gradient-11" x1="252.37" y1="163.82" x2="240.43" y2="197.93" gradientUnits="userSpaceOnUse">
      <stop offset="0" stop-color="#f78b7c"/>
      <stop offset="1" stop-color="#ffb7a9"/>
    </linearGradient>
    <linearGradient id="linear-gradient-12" x1="259.17" y1="124.98" x2="275.34" y2="190.17" xlink:href="#linear-gradient-2"/>
    <linearGradient id="linear-gradient-13" x1="258.34" y1="123.43" x2="255.12" y2="140.3" xlink:href="#linear-gradient-11"/>
    <linearGradient id="linear-gradient-14" x1="252.34" y1="109.26" x2="255.75" y2="127.64" xlink:href="#linear-gradient-9"/>
    <linearGradient id="linear-gradient-15" x1="294.48" y1="170.47" x2="280.58" y2="145.96" xlink:href="#linear-gradient-2"/>
    <linearGradient id="linear-gradient-16" x1="290.03" y1="141.11" x2="268.42" y2="194.17" xlink:href="#linear-gradient-11"/>
    <linearGradient id="linear-gradient-17" x1="242.41" y1="318.27" x2="241.57" y2="298.09" xlink:href="#linear-gradient-2"/>
    <linearGradient id="linear-gradient-18" x1="100.44" y1="170.38" x2="100.86" y2="242.25" gradientUnits="userSpaceOnUse">
      <stop offset="0" stop-color="#6d5bd8"/>
      <stop offset="1" stop-color="#c7cfff"/>
    </linearGradient>
    <linearGradient id="linear-gradient-19" x1="173.33" y1="176.19" x2="130.04" y2="294.71" xlink:href="#linear-gradient-18"/>
    <linearGradient id="linear-gradient-20" x1="281.91" y1="193.04" x2="323.1" y2="290.13" xlink:href="#linear-gradient-18"/>
    <linearGradient id="linear-gradient-21" x1="268.05" y1="169.4" x2="268.47" y2="241.27" xlink:href="#linear-gradient-18"/>
    <linearGradient id="linear-gradient-22" x1="124.67" y1="174.31" x2="120.89" y2="119.44" xlink:href="#linear-gradient-2"/>
    <linearGradient id="linear-gradient-23" x1="221.28" y1="219.91" x2="203.34" y2="158.83" xlink:href="#linear-gradient-2"/>
    <radialGradient id="radial-gradient-3" cx="309.69" cy="65.07" fx="309.69" fy="65.07" r="45.33" gradientTransform="translate(13.35 49.15) scale(1 .88)" xlink:href="#radial-gradient"/>
    <linearGradient id="linear-gradient-24" x1="295.69" y1="46.31" x2="335.11" y2="146.37" xlink:href="#linear-gradient-2"/>
    <linearGradient id="linear-gradient-25" x1="330.39" y1="143.68" x2="382.76" y2="143.68" xlink:href="#linear-gradient-2"/>
    <radialGradient id="radial-gradient-4" cx="331.86" cy="152.49" fx="331.86" fy="152.49" r="8.81" xlink:href="#radial-gradient-2"/>
    <linearGradient id="linear-gradient-26" x1="41.83" y1="200.74" x2="76.77" y2="200.74" xlink:href="#linear-gradient-2"/>
    <linearGradient id="linear-gradient-27" x1="41.83" y1="209.35" x2="76.77" y2="209.35" xlink:href="#linear-gradient-2"/>
    <radialGradient id="radial-gradient-5" cx="75.61" cy="191.78" fx="75.61" fy="191.78" r="8.81" gradientTransform="translate(79.61 -14.33) rotate(22.63)" xlink:href="#radial-gradient-2"/>
    <radialGradient id="radial-gradient-6" cx="139.67" cy="313.63" fx="139.67" fy="313.63" r="232.68" gradientUnits="userSpaceOnUse">
      <stop offset="0" stop-color="#f0f"/>
      <stop offset="1" stop-color="aqua" stop-opacity="0"/>
    </radialGradient>
    <radialGradient id="radial-gradient-7" cx="235.41" cy="244.73" fx="235.41" fy="244.73" r="8.81" xlink:href="#radial-gradient-2"/>
    <radialGradient id="radial-gradient-8" cx="165.82" cy="291.12" fx="165.82" fy="291.12" r="8.81" xlink:href="#radial-gradient-2"/>
    <linearGradient id="linear-gradient-28" x1="403.69" y1="157.29" x2="384.36" y2="236.13" xlink:href="#linear-gradient-2"/>
    <linearGradient id="linear-gradient-29" x1="13.8" y1="268.16" x2="58.91" y2="310.61" xlink:href="#linear-gradient-2"/>
  </defs>
  <g class="cls-30">
    <g id="Layer_2" data-name="Layer 2">
      <g id="OBJECTS">
        <g>
          <g>
            <path class="cls-51" d="m408.01,166.77c-1.64,16.66-5.72,33.05-11.73,48.65-4.47,11.6-10,22.77-16.38,33.27-1.47,2.41-2.98,4.79-4.54,7.14-2.42,3.65-4.95,7.21-7.58,10.67-6.59,8.7-13.76,16.75-21.37,24.01-6.82,6.5-13.97,12.35-21.37,17.44-4.18,2.88-2.16,9.42,2.91,9.42h2.34c.31,0,.62.02.92.05,4.48.47,7.94,4.36,7.72,9.02-.22,4.65-4.23,8.24-8.89,8.24H84.08c-4.92,0-8.88-4.1-8.65-9.07.11-2.32,1.17-4.39,2.78-5.86,1.61-1.48,3.78-2.38,6.11-2.38,4.93,0,7.05-6.24,3.15-9.25-16.44-12.68-43.93-38.69-59.41-79.82-7.62-20.24-12.33-44.14-11.39-71.92C20.47,44.33,127.18-17.07,251.58,4.16c124.4,21.22,163.82,87.59,156.43,162.61Z"/>
            <path class="cls-11" d="m346.42,290.5c-5.47,10.31-10.8,19.56-15.2,26.91-6.36,10.63-10.76,17.26-10.76,17.26H84.08c-4.92,0-8.88-4.1-8.65-9.07.11-2.32,1.17-4.39,2.78-5.86,1.61-1.48,3.78-2.38,6.11-2.38,4.93,0,7.05-6.24,3.15-9.25-2.33-1.8-4.88-3.86-7.58-6.2-5.18-4.46-10.92-9.93-16.79-16.43-4.17-4.62-8.4-9.76-12.51-15.45h0c-8.43-11.63-16.41-25.51-22.52-41.75,18.59,18.69,45.89,38.14,80.34,40.43,68.22,4.55,196.14-122.22,251.85-100.06,35.49,14.12,9.62,77.61-13.84,121.84Z"/>
            <g>
              <g>
                <rect class="cls-14" x="95.61" y="230.93" width="21.6" height="8.09" transform="translate(212.82 469.94) rotate(180)"/>
                <rect class="cls-14" x="71.41" y="230.93" width="21.6" height="8.09" transform="translate(164.41 469.94) rotate(180)"/>
              </g>
              <g>
                <rect class="cls-12" x="83.51" y="242.31" width="21.6" height="8.09" transform="translate(188.62 492.7) rotate(180)"/>
                <rect class="cls-12" x="59.3" y="242.31" width="21.6" height="8.09" transform="translate(140.21 492.7) rotate(180)"/>
              </g>
            </g>
            <g>
              <g>
                <rect class="cls-14" x="243.99" y="30.18" width="21.6" height="8.09"/>
                <rect class="cls-14" x="268.19" y="30.18" width="21.6" height="8.09"/>
              </g>
              <g>
                <rect class="cls-12" x="256.09" y="41.56" width="21.6" height="8.09"/>
                <rect class="cls-12" x="280.3" y="41.56" width="21.6" height="8.09"/>
              </g>
            </g>
          </g>
          <g>
            <ellipse class="cls-36" cx="66.8" cy="162.29" rx="54.72" ry="48.8" transform="translate(-58.79 39.7) rotate(-23.32)"/>
            <path class="cls-9" d="m92.2,105.97v65.93c0,2.38-1.93,4.32-4.32,4.32H4.31c-2.38,0-4.31-1.93-4.31-4.32v-65.93c0-2.38,1.93-4.31,4.31-4.31h83.57c2.38,0,4.32,1.93,4.32,4.31Z"/>
            <path class="cls-60" d="m38.99,113.07H7.9c-.91,0-1.64-.74-1.64-1.64h0c0-.91.74-1.64,1.64-1.64h31.09c.91,0,1.64.74,1.64,1.64h0c0,.91-.74,1.64-1.64,1.64Z"/>
            <path class="cls-44" d="m38.99,124.19H7.9c-.91,0-1.64-.74-1.64-1.64h0c0-.91.74-1.64,1.64-1.64h31.09c.91,0,1.64.74,1.64,1.64h0c0,.91-.74,1.64-1.64,1.64Z"/>
            <path class="cls-60" d="m49.4,135.31H7.9c-.91,0-1.64-.74-1.64-1.64h0c0-.91.74-1.64,1.64-1.64h41.5c.91,0,1.64.74,1.64,1.64h0c0,.91-.74,1.64-1.64,1.64Z"/>
            <path class="cls-60" d="m49.4,166.45H7.9c-.91,0-1.64-.74-1.64-1.64h0c0-.91.74-1.64,1.64-1.64h41.5c.91,0,1.64.74,1.64,1.64h0c0,.91-.74,1.64-1.64,1.64Z"/>
            <path class="cls-44" d="m79.59,166.45h-20.94c-.91,0-1.64-.74-1.64-1.64h0c0-.91.74-1.64,1.64-1.64h20.94c.91,0,1.64.74,1.64,1.64h0c0,.91-.74,1.64-1.64,1.64Z"/>
            <g>
              <path class="cls-15" d="m30,142.81v4.73c0,.38.31.69.69.69h2.62c.38,0,.69-.31.69-.69v-4.73c0-.38.31-.69.69-.69h.25c.38,0,.69.31.69.69v12.86c0,.38-.31.69-.69.69h-.25c-.38,0-.69-.31-.69-.69v-5.28c0-.38-.31-.69-.69-.69h-2.62c-.38,0-.69.31-.69.69v5.28c0,.38-.31.69-.69.69h-.25c-.38,0-.69-.31-.69-.69v-12.86c0-.38.31-.69.69-.69h.25c.38,0,.69.31.69.69Z"/>
              <path class="cls-15" d="m39.13,143.58h-1.22c-.38,0-.69-.31-.69-.69v-.09c0-.38.31-.69.69-.69h5.45c.38,0,.69.31.69.69v.09c0,.38-.31.69-.69.69h-1.22c-.38,0-.69.31-.69.69v11.41c0,.38-.31.69-.69.69h-.25c-.38,0-.69-.31-.69-.69v-11.41c0-.38-.31-.69-.69-.69Z"/>
              <path class="cls-15" d="m54.16,150.23c-.11-1.88-.21-3.97-.15-5.58h-.08c-.32,1.58-.7,3.27-1.14,4.94l-1.75,6.67h-1.04l-1.67-6.4c-.47-1.82-.89-3.57-1.16-5.22h-.06c0,1.67-.09,3.65-.17,5.68l-.24,5.36c-.02.37-.32.65-.69.65h-.07c-.39,0-.71-.33-.69-.73l.76-12.86c.02-.36.32-.65.69-.65h.57c.31,0,.59.21.66.52l1.54,5.99c.49,1.88.84,3.27,1.14,4.9h.06c.27-1.63.59-2.98,1.06-4.9l1.48-5.98c.08-.31.35-.52.67-.52h.63c.36,0,.66.28.69.65l.74,12.86c.02.39-.29.73-.69.73h-.14c-.37,0-.67-.29-.69-.65l-.26-5.47Z"/>
              <path class="cls-15" d="m58.87,142.12h.25c.38,0,.69.31.69.69v11.49c0,.38.31.69.69.69h2.64c.38,0,.69.31.69.69h0c0,.38-.31.69-.69.69h-4.27c-.38,0-.69-.31-.69-.69v-12.86c0-.38.31-.69.69-.69Z"/>
            </g>
            <circle class="cls-20" cx="79.41" cy="164.81" r="8.81"/>
          </g>
          <g>
            <path class="cls-14" d="m92.2,105.97v29.12h-47.19c-1.99,0-3.61-1.62-3.61-3.61v-29.82h46.48c2.38,0,4.32,1.93,4.32,4.31Z"/>
            <path class="cls-50" d="m50.53,22.61h155.4c1.67,0,3.03,1.36,3.03,3.03v3.54H47.5v-3.54c0-1.67,1.36-3.03,3.03-3.03Z"/>
            <path class="cls-57" d="m47.5,29.17h161.46v96.21c0,1.99-1.61,3.6-3.6,3.6H51.11c-1.99,0-3.6-1.61-3.6-3.6V29.17h0Z"/>
            <g>
              <path class="cls-44" d="m202.02,25.89c0,.63-.51,1.14-1.14,1.14s-1.14-.51-1.14-1.14.51-1.14,1.14-1.14,1.14.51,1.14,1.14Z"/>
              <path class="cls-44" d="m195.05,25.89c0,.63-.51,1.14-1.14,1.14s-1.14-.51-1.14-1.14.51-1.14,1.14-1.14,1.14.51,1.14,1.14Z"/>
              <path class="cls-44" d="m188.08,25.89c0,.63-.51,1.14-1.14,1.14s-1.14-.51-1.14-1.14.51-1.14,1.14-1.14,1.14.51,1.14,1.14Z"/>
            </g>
            <path class="cls-15" d="m146.43,41.56H63.8c-.91,0-1.64-.74-1.64-1.64h0c0-.91.74-1.64,1.64-1.64h82.63c.91,0,1.64.74,1.64,1.64h0c0,.91-.74,1.64-1.64,1.64Z"/>
            <path class="cls-15" d="m146.43,51.92H63.8c-.91,0-1.64-.74-1.64-1.64h0c0-.91.74-1.64,1.64-1.64h82.63c.91,0,1.64.74,1.64,1.64h0c0,.91-.74,1.64-1.64,1.64Z"/>
            <rect class="cls-60" x="62.16" y="58.99" width="41.31" height="3.28" rx="1.64" ry="1.64"/>
            <path class="cls-60" d="m146.43,103.3H63.8c-.91,0-1.64-.74-1.64-1.64h0c0-.91.74-1.64,1.64-1.64h82.63c.91,0,1.64.74,1.64,1.64h0c0,.91-.74,1.64-1.64,1.64Z"/>
            <path class="cls-60" d="m101.83,113.66h-38.03c-.91,0-1.64-.74-1.64-1.64h0c0-.91.74-1.64,1.64-1.64h38.03c.91,0,1.64.74,1.64,1.64h0c0,.91-.74,1.64-1.64,1.64Z"/>
            <g>
              <path class="cls-60" d="m180,48.38c-7.66,0-13.89,6.23-13.89,13.89s6.23,13.89,13.89,13.89,13.89-6.23,13.89-13.89-6.23-13.89-13.89-13.89Zm0,25.43c-6.36,0-11.53-5.17-11.53-11.53s5.17-11.53,11.53-11.53,11.53,5.17,11.53,11.53-5.17,11.53-11.53,11.53Z"/>
              <path class="cls-60" d="m185.76,65.41c-3.18,3.18-8.35,3.18-11.53,0-.33-.33-.85-.33-1.18,0-.33.33-.33.85,0,1.18,1.92,1.91,4.43,2.87,6.95,2.87s5.03-.96,6.95-2.87c.33-.33.33-.85,0-1.18-.33-.33-.85-.33-1.18,0Z"/>
              <path class="cls-60" d="m175.01,61.52c.77,0,1.39-.62,1.39-1.39s-.62-1.39-1.39-1.39-1.39.62-1.39,1.39.62,1.39,1.39,1.39Z"/>
              <path class="cls-60" d="m184.99,61.52c.77,0,1.39-.62,1.39-1.39s-.62-1.39-1.39-1.39-1.39.62-1.39,1.39.62,1.39,1.39,1.39Z"/>
            </g>
            <g>
              <g>
                <path class="cls-55" d="m69.62,91.67c-.35,0-.69-.14-.96-.42l-6.11-6.54c-.53-.57-.53-1.48,0-2.05l6.21-6.65c.53-.57,1.39-.57,1.91,0,.53.57.53,1.48,0,2.05l-5.26,5.62,5.15,5.51c.53.57.53,1.48,0,2.05-.26.28-.61.42-.96.42Z"/>
                <path class="cls-41" d="m89.19,91.67c-.35,0-.69-.14-.96-.42-.53-.57-.53-1.48,0-2.05l5.15-5.51-5.26-5.62c-.53-.57-.53-1.48,0-2.05.53-.57,1.39-.57,1.91,0l6.21,6.65c.25.27.4.64.4,1.02s-.14.75-.4,1.02l-6.11,6.54c-.26.28-.61.42-.96.42Z"/>
              </g>
              <path class="cls-29" d="m76.37,93.47c-.17,0-.34-.03-.51-.11-.69-.3-1.02-1.15-.74-1.89l6.06-15.94c.28-.74,1.07-1.1,1.76-.8.69.3,1.02,1.15.74,1.89l-6.06,15.94c-.21.56-.72.9-1.25.9Z"/>
            </g>
            <path class="cls-60" d="m201.46,87.62h-42.92c-2.14,0-3.89-1.74-3.89-3.89v-42.92c0-2.14,1.74-3.89,3.89-3.89h42.92c2.14,0,3.89,1.74,3.89,3.89v42.92c0,2.14-1.74,3.89-3.89,3.89Zm-42.92-48.33c-.84,0-1.53.69-1.53,1.53v42.92c0,.84.69,1.53,1.53,1.53h42.92c.84,0,1.53-.69,1.53-1.53v-42.92c0-.84-.69-1.53-1.53-1.53h-42.92Z"/>
            <path class="cls-45" d="m138.99,76.83v-1.33c0-.51-.41-.92-.92-.92h-2.18c-.17-.73-.46-1.41-.84-2.03l1.54-1.54c.36-.36.36-.94,0-1.29l-.94-.94c-.36-.36-.94-.36-1.29,0l-1.54,1.54c-.62-.38-1.3-.67-2.03-.84v-2.18c0-.51-.41-.92-.91-.92h-1.33c-.51,0-.91.41-.91.92v2.18c-.73.17-1.41.46-2.03.84l-1.54-1.54c-.36-.36-.94-.36-1.29,0l-.94.94c-.36.36-.36.94,0,1.29l1.54,1.54c-.38.62-.67,1.3-.84,2.03h-2.18c-.51,0-.92.41-.92.92v1.33c0,.51.41.91.92.91h2.18c.17.73.46,1.41.84,2.03l-1.54,1.54c-.36.36-.36.94,0,1.29l.94.94c.36.36.94.36,1.29,0l1.54-1.54c.62.38,1.3.67,2.03.84v2.18c0,.51.41.92.91.92h1.33c.51,0,.91-.41.91-.92v-2.18c.73-.17,1.41-.46,2.03-.84l1.54,1.54c.36.36.94.36,1.29,0l.94-.94c.36-.36.36-.94,0-1.29l-1.54-1.54c.38-.62.67-1.3.84-2.03h2.18c.51,0,.92-.41.92-.91Zm-9.14,3.05c-2.58.43-4.79-1.78-4.36-4.36.26-1.56,1.52-2.82,3.08-3.08,2.58-.43,4.79,1.78,4.36,4.36-.26,1.56-1.52,2.82-3.08,3.08Z"/>
          </g>
          <g>
            <g>
              <path class="cls-56" d="m287.48,314.95l24.76-1.39s9.86-.12,1.27-5.18c-1.52-.89-2.86-1.89-4.06-2.92-3.89-3.38-6.16-7.19-7.18-9.19l-4.86,1.28-8.5,2.24c-.08.02-.15.04-.22.05-.61,5.05-1.21,15.11-1.21,15.11Z"/>
              <path class="cls-8" d="m320.46,317.35s-.5-8.21-6.95-8.97c-6.44-.76-7.18,5.51-7.18,5.51l-18.85-1.06-.5,4.52h33.48Z"/>
              <path class="cls-8" d="m297.41,297.56c.75,2.46,2.87,8.04,6.87,9.69,1.94-1.55,3.93-1.82,5.17-1.78-3.89-3.38-6.16-7.19-7.18-9.19l-4.86,1.28Z"/>
            </g>
            <path class="cls-48" d="m303.06,294.42l-16.58,1.77s-6.51-51.99-12.38-73.47c-1.89,4.43-5.71,20.43-9.27,36.38-4.15,18.61-7.96,37.16-7.96,37.16,0,0-9.5,1.07-14.81-3.23,1.63-29.66,13.12-88.85,14.62-97.51.01.07.03.14.05.21.11.4.22.72.37.97.08.14.18.28.31.42,0,0,0,0,.02.02,1.37,1.5,5.49,3.15,11.25,3.34,6.2.19,14.29-1.31,22.91-6.56.2-.4.22-1.36.11-2.73.29.28.84,3.77,1.55,9.3,3.25,25.39,9.8,93.94,9.8,93.94Z"/>
            <path class="cls-35" d="m256.5,165.24l-1.16,4.53-.08.31-.28,1.07h0s-2.14.17-4.98-.75c-1.36-.44-2.88-1.11-4.4-2.17-.38-.27-.75-.55-1.13-.86.52-6.11,2.52-16.9,3.17-20.33.13-.69.21-1.08.21-1.08l8.66,19.27Z"/>
            <path class="cls-31" d="m256.88,170.55s-1.24,5.47-2.82,10.53c-1.13,3.57-2.42,6.95-3.57,8.04-2.8,2.65-10,7.01-10,7.01l-4.17-8.62,6.16-5.4,2.42-10.79.7-3.08c4.7,3.27,9.38,2.92,9.38,2.92l.28-1.08,1.62.47Z"/>
            <path class="cls-58" d="m291.59,193.92c-8.62,5.25-16.71,6.76-22.91,6.56-5.78-.18-9.92-1.85-11.27-3.36-.13-.14-.24-.28-.31-.42-.14-.25-.26-.58-.37-.97-.02-.07-.04-.14-.05-.21-.45-1.91-.52-5.13-.5-8.53,0-.52,0-1.04.01-1.56.02-1.41.04-2.82.05-4.16v-.02c.02-1.77.01-3.39-.07-4.69-.03-.58-.08-1.09-.14-1.52-.03-.16-.05-.31-.08-.45-.01-.05-.02-.1-.04-.15-.17-.75-.5-1.89-.95-3.28h0c-.4-1.29-.9-2.78-1.44-4.39-.16-.47-.32-.96-.48-1.45-.49-1.47-1.01-3.02-1.52-4.58-.4-1.22-.8-2.45-1.19-3.65-.15-.49-.31-.97-.45-1.45-1.01-3.27-1.86-6.27-2.22-8.34-.01-.09-.03-.17-.04-.25-.04-.22-.06-.43-.09-.63.09-.15.19-.3.29-.45.07-.11.14-.21.21-.31,1.84-2.64,4.35-4.98,6.61-6.8.65-.52,1.28-1,1.86-1.42.47-.35.91-.66,1.32-.94l.04-.02,2.66-1.52c3.01-.5,5.81-.7,8.34-.71,3.45-.02,6.39.31,8.58.68,2.78.47,4.39,1,4.39,1l.14,1.72.12,1.53.7,8.7.12,1.53.05.68s0,0,0,.02c.08.31.84,3.35,1.89,7.71.12.48.24.97.36,1.48.61,2.53,1.28,5.41,1.97,8.4.11.49.22.98.33,1.47.64,2.81,1.27,5.68,1.84,8.44.1.5.2,1,.31,1.49.64,3.14,1.18,6.08,1.55,8.5.08.52.15,1.03.22,1.5.11.77.18,1.47.24,2.09.11,1.37.09,2.33-.11,2.73Z"/>
            <g class="cls-32">
              <path class="cls-21" d="m282.12,139.18l-34.45,8.12c-.01-.09-.03-.17-.04-.25-.04-.22-.06-.43-.09-.63.09-.15.19-.3.29-.45.07-.11.14-.21.21-.31l33.95-8,.12,1.53Z"/>
              <path class="cls-21" d="m282.95,149.41l-32.6,7.69c-.15-.49-.31-.97-.45-1.45l32.93-7.76.12,1.53Z"/>
              <path class="cls-21" d="m285.25,159.29l-31.71,7.48c-.16-.47-.32-.96-.48-1.45l31.84-7.51c.12.48.24.97.36,1.48Z"/>
              <path class="cls-21" d="m287.55,169.17l-31.37,7.39c-.03-.58-.08-1.09-.14-1.52l31.18-7.35c.11.49.22.98.33,1.47Z"/>
              <path class="cls-21" d="m289.7,179.09l-33.51,7.9c0-.52,0-1.04.01-1.56l33.19-7.82c.1.5.2,1,.31,1.49Z"/>
              <path class="cls-21" d="m291.47,189.1l-34.05,8.02c-.13-.14-.24-.28-.31-.42-.14-.25-.26-.58-.37-.97l34.51-8.14c.08.52.15,1.03.22,1.5Z"/>
            </g>
            <path class="cls-14" d="m277.47,134.93c-1.61,4.49-5.14,10.76-12.37,11.04-8.64.34-10.19-4.72-10.44-7.11.65-.52,1.28-1,1.86-1.42.47-.35.91-.66,1.32-.94l.04-.02,2.66-1.52c3.01-.5,5.81-.7,8.34-.71,3.45-.02,6.39.31,8.58.68Z"/>
            <g>
              <path class="cls-59" d="m265.1,141.36c-.68.65-1.54,1.04-2.54.86-1.85-.32-3.01-1.59-3.66-2.59-.41-.63-.62-1.17-.68-1.33-.01-.03-.02-.05-.02-.05,0,0-.43.24-1.5.05-.05,0-.11-.02-.16-.03-.04,0-.05-.01-.05-.01-.81-.17-1.96-.57-3.5-1.44-2.28-1.28-4.09-3.23-5.45-5.12-.3-.42-.58-.84-.84-1.24-.29-.46-.56-.91-.8-1.33,5.18-.52,8.6-4.2,10.12-8.6,0,0,2.84,4.68,3.47,4.68s1.14-4.42,3.03-4.48c.32-.01.6.06.83.21,1.1.7,1.09,3.1.19,5.6-.57,1.58,1.77,2.91,2.28,3.04.03,0,.07-.02.13-.08.13,1.66.42,3.48.68,4.83.14.71.28,1.3.38,1.65.32,1.11-.38,3.94-1.92,5.39Z"/>
              <path class="cls-47" d="m251.53,123.82c-.1.22-1.77,3.6-5.71,5.17-.17-.29-.31-.58-.45-.84,3.24-1.51,5.98-4.16,6.16-4.33Z"/>
            </g>
            <path class="cls-27" d="m269.72,119.26c-.8,5-3.12,9.59-3.77,10.22-.06.06-.1.08-.13.08-.51-.13-2.85-1.46-2.28-3.04,1.08-3.01.88-5.87-1.01-5.81-1.89.06-2.4,4.48-3.03,4.48s-3.47-4.68-3.47-4.68c-1.53,4.4-4.94,8.08-10.12,8.6-.18.02-.37.04-.55.05.17-.06.32-.12.48-.18,3.94-1.57,5.61-4.95,5.71-5.17-.17.17-2.91,2.82-6.16,4.33-1.57.73-3.26,1.19-4.83.97-.12-.15-.24-.31-.34-.48-4.56-6.79-1.28-20.94,5.11-23.65,0,0-1.66-.48-3.65-1.95,2.84.62,10.09-1.89,12.61-1.56,2.51.33,3.31,2.32,3.31,2.32,0,0,3.17-2.86,6.77-1.66-1.77-.06-3.1,2.08-3.1,2.08,0,0,6.76,1.52,8.4,8.66.47,2.02.4,4.24.05,6.39Z"/>
            <path class="cls-14" d="m265.1,141.36c-.68.65-1.54,1.04-2.54.86-1.85-.32-3.01-1.59-3.66-2.59-.41-.63-.62-1.17-.68-1.33,1.24-.29,2.91-1.31,4.19-4.49h0s0-.01,0-.02c1.19.87.98,6.2,2.68,7.58Z"/>
            <g>
              <path class="cls-14" d="m245.83,128.99c-.17-.29-.31-.58-.45-.84,3.24-1.51,5.98-4.16,6.16-4.33-.1.22-1.77,3.6-5.71,5.17Z"/>
              <path class="cls-14" d="m263.35,120.92c-3,.99-1.76,5.82-3.38,6.07-2.02.32-3-2.69-3-2.69,0,0-1.27,2.53-5.12,4.68-1.71.96-3.59,1.33-5.16,1.46-.29-.46-.56-.91-.8-1.33,5.18-.52,8.6-4.2,10.12-8.6,0,0,2.84,4.68,3.47,4.68s1.14-4.42,3.03-4.48c.32-.01.6.06.83.21Z"/>
            </g>
            <path class="cls-12" d="m262.42,133.8c-1.28,3.18-2.94,4.2-4.19,4.49-.01-.03-.02-.05-.02-.05,0,0-.47.27-1.66.02-.04,0-.05-.01-.05-.01-.81-.17-1.96-.57-3.5-1.44-2.28-1.28-4.09-3.23-5.45-5.12.38-.04.93.08,1.62.62,1.56,1.23,2.98,4.07,6.54,4.83,3.53.76,5.81-2.02,6.72-3.35Z"/>
            <path class="cls-14" d="m262.55,122.76s-.61,1.77-.34,2.34c.27.57,2.2-1.17.34-2.34Z"/>
            <path class="cls-14" d="m269.72,119.26c-.8,5-3.12,9.59-3.77,10.22-.06.06-.1.08-.13.08-.51-.13-2.85-1.46-2.28-3.04,1.08-3.01.88-5.87-1.01-5.81-1.89.06-2.4,4.48-3.03,4.48s-3.47-4.68-3.47-4.68c-1.53,4.4-4.94,8.08-10.12,8.6-.18.02-.37.04-.55.05.17-.06.32-.12.48-.18,3.94-1.57,5.61-4.95,5.71-5.17-.17.17-2.91,2.82-6.16,4.33-1.57.73-3.26,1.19-4.83.97-.12-.15-.24-.31-.34-.48,3.51-2.36,12.27-8.9,12.12-15.41,1.7,3.22,1.33,7.29,1.33,7.29,0,0,1.6-4.26,1.32-7.87,2.56,3.6,3.25,6.73,3.25,6.73,0,0,.35-3.6,4.52-4.27,4.17-.66,4.35,5.4,4.35,5.4,0,0,1.44-2.18-.17-6.06,1.09.64,2.04,2.55,2.8,4.81Z"/>
            <path class="cls-23" d="m263.98,144.33c-5.15.65-6.77-4.21-7.27-6.04,1.07.19,1.5-.05,1.5-.05,0,0,0,.02.02.05.06.17.27.7.68,1.33.65,1.01,1.8,2.27,3.66,2.59,1,.18,1.85-.21,2.54-.86,1.53-1.46,2.24-4.29,1.92-5.39-.11-.35-.24-.94-.38-1.65.77-.04,1.53-.05,2.25-.06.19,4.02-.42,9.51-4.9,10.08Z"/>
            <path class="cls-14" d="m256.26,181.25c.03-2.84,0-5.31-.29-6.66-.16-.75-.51-1.94-.98-3.43,0,0-2.14.16-4.98-.75.45-1.64.4-4.85.49-8.86.04-1.62-.13-4.03-.49-5.49,1.92,4.33,4.45,9.24,5.34,13.71.96,4.81,1.29,9.08.92,11.49Z"/>
            <path class="cls-14" d="m291.59,193.92c-8.62,5.25-16.71,6.76-22.91,6.56,7.36-3.08,5.21-10.51-1.59-11.87,6.83-5.05,12.34-9.54,11.23-25.89-.57-8.36.63-15.29.63-15.29l4.05,2.68c.29,1.14,10.21,40.58,8.58,43.81Z"/>
            <path class="cls-24" d="m291.77,155.64c-.02.14-.06.28-.12.42-.37.8-1.49,1.59-2.88,2.31-2.45,1.27-5.73,2.31-7.18,2.74-.46.14-.73.21-.73.21,0,0-4.09-8.12-4.82-15.21-.47-4.5.42-8.58,4.59-9.9.38-.12.8-.22,1.24-.29,0,0,5.73,3.18,9.72,18.96.06.25.12.5.18.75Z"/>
            <path class="cls-38" d="m295.5,176.99c-1.64,3.16-27.79,15.92-27.79,15.92,0,0-2.02,3.79-5.68,4.55-3.67.76-6.44-1.26-8.59-1.39-2.15-.13-5.18,2.15-5.18,2.15,0,0-.37.02-.68-.14-.39-.2-.68-.7-.03-1.89,2.82-5.05,13.22-5.94,13.98-6.31.36-.18,5.61-4.38,11.04-8.76,6.05-4.87,12.33-9.96,12.33-9.96l-2.51-7.61-.8-2.44c2.26-.67,9.04-2.85,10.06-5.05.26.88.64,2.16,1.06,3.67,1.62,5.86,3.91,15.13,2.81,17.26Z"/>
            <path class="cls-14" d="m292.7,159.73c-3.37,3.15-7.96,3.74-10.31,3.82l-.8-2.44c2.26-.67,9.04-2.85,10.06-5.05.26.88.64,2.16,1.06,3.67Z"/>
            <path class="cls-14" d="m255.93,174.44c-.49,1.93-1.14,4.32-1.87,6.64-3.22-2.02-7.09-6.93-9.16-9.76l.7-3.08c4.7,3.27,9.38,2.92,9.38,2.92.45,1.39.78,2.52.95,3.28Z"/>
            <rect class="cls-37" x="285.86" y="294.23" width="18.88" height="5.05" rx="2.36" ry="2.36" transform="translate(-24.01 26.01) rotate(-4.85)"/>
            <path class="cls-37" d="m258.63,298c-.29,1.13-1.32,1.88-2.45,1.88-.14,0-.28-.01-.42-.04-.08-.01-.15-.03-.22-.05l-13.37-3.52-.69-.18c-1.35-.36-2.15-1.74-1.8-3.09.3-1.13,1.32-1.89,2.44-1.89.21,0,.43.03.65.09l14.06,3.7c1.35.36,2.15,1.74,1.8,3.09Z"/>
            <g>
              <path class="cls-22" d="m256.98,314.95l-24.76-1.39s-9.86-.12-1.27-5.18c1.52-.89,2.86-1.89,4.06-2.92,3.89-3.38,6.16-7.19,7.18-9.19l4.86,1.28,8.5,2.24c.08.02.15.04.22.05.61,5.05,1.21,15.11,1.21,15.11Z"/>
              <path class="cls-8" d="m224,317.35s.5-8.21,6.95-8.97c6.44-.76,7.18,5.51,7.18,5.51l18.85-1.06.5,4.52h-33.48Z"/>
              <path class="cls-8" d="m247.04,297.56c-.75,2.46-2.87,8.04-6.87,9.69-1.94-1.55-3.93-1.82-5.17-1.78,3.89-3.38,6.16-7.19,7.18-9.19l4.86,1.28Z"/>
            </g>
            <path class="cls-14" d="m291.77,155.64c-.02.14-.06.28-.12.42-.37.8-1.49,1.59-2.88,2.31-.03-2.88-.35-6.98-1.62-11.07-1.63-5.26-4.8-9.21-6.53-11.08.38-.12.8-.22,1.24-.29,0,0,5.73,3.18,9.72,18.96.06.25.12.5.18.75Z"/>
            <path class="cls-5" d="m285.59,200.5s-.38,5.49,5.12,6.63"/>
            <line class="cls-5" x1="288.14" y1="209.33" x2="298.92" y2="291.12"/>
            <line class="cls-5" x1="271.48" y1="221.72" x2="253.2" y2="291.12"/>
            <path class="cls-14" d="m274.1,222.73c-1.89,4.43-5.71,20.43-9.27,36.38-.11-8.33.07-17.29.98-24,2.27-16.73,8.28-12.38,8.28-12.38Z"/>
            <path class="cls-14" d="m293.25,200.49c-24.28,12.12-35.34-2.67-35.82-3.34,1.37,1.5,5.49,3.15,11.25,3.34,6.2.19,14.29-1.31,22.91-6.56.2-.4.22-1.36.11-2.73.29.28.84,3.77,1.55,9.3Z"/>
            <path class="cls-12" d="m272.56,181.12c-1.01,3.9-9.3,10.16-10.76,10.06-1.66-.11-9.38,1.86-11.81,3.28-1.9,1.11-2.33,2.88-2.42,3.61-.39-.2-.68-.7-.03-1.89,2.82-5.05,13.22-5.94,13.98-6.31.36-.18,5.61-4.38,11.04-8.76Z"/>
          </g>
          <g>
            <path class="cls-25" d="m117.15,210.69l-1.93-1.35-1.93-1.36c-.29.42-7.26,10.44-14.3,28.99-6.47,17.06-14.18,44.85-14.18,80.38h4.72c0-66.47,27.34-106.27,27.62-106.67Z"/>
            <path class="cls-54" d="m159.35,210.69l-1.93-1.35-1.93-1.36c-.29.42-7.26,10.44-14.3,28.99-6.47,17.06-14.18,44.85-14.18,80.38h4.72c0-66.47,27.34-106.27,27.62-106.67Z"/>
            <path class="cls-28" d="m294.63,210.69l1.93-1.35,1.93-1.36c.29.42,7.26,10.44,14.3,28.99,6.47,17.06,14.18,44.85,14.18,80.38h-4.72c0-66.47-27.34-106.27-27.62-106.67Z"/>
            <path class="cls-40" d="m252.43,210.69l1.93-1.35,1.93-1.36c.29.42,7.26,10.44,14.3,28.99,6.47,17.06,14.18,44.85,14.18,80.38h-4.72c0-66.47-27.34-106.27-27.62-106.67Z"/>
            <g>
              <path class="cls-39" d="m298.92,208.36c0,.86-.35,1.64-.91,2.21-.57.57-1.34.91-2.2.91H84.23c-1.72,0-3.12-1.4-3.12-3.12,0-.86.35-1.64.91-2.21.57-.57,1.34-.91,2.2-.91h211.57c1.72,0,3.12,1.4,3.12,3.12Z"/>
              <path class="cls-42" d="m336.33,208.36c0,.86-.35,1.64-.91,2.21-.57.57-1.34.91-2.21.91h-37.41c.86,0,1.64-.35,2.2-.91.57-.57.91-1.34.91-2.21,0-1.72-1.4-3.12-3.12-3.12h37.41c1.72,0,3.12,1.4,3.12,3.12Z"/>
            </g>
          </g>
          <g>
            <path class="cls-44" d="m157.42,113.82v68.47h-49.36c-3.91,0-7.07-3.17-7.07-7.07v-54.32c0-3.91,3.17-7.07,7.07-7.07h49.36Z"/>
            <path class="cls-42" d="m157.42,182.3h0v-68.48h0c-3.91,0-7.07,3.17-7.07,7.07v54.33c0,3.91,3.17,7.07,7.07,7.07Z"/>
            <path class="cls-14" d="m132.85,182.3h-17.32l4.29-26.56s2.03-3.93,6.49-1.39c3.62,2.08,1.92,19.99,6.54,27.95Z"/>
            <path class="cls-39" d="m108.4,197.12l11.42-41.39c.42-1.51,2.41-1.89,3.32-.6,1.71,2.42,3.62,6.56,3.07,12.56-.95,10.43-7.01,30.39-7.01,30.39l-10.8-.96Z"/>
            <path class="cls-33" d="m128.7,196.04h-23.1c-2.54,0-4.6,2.06-4.6,4.6h0c0,2.54,2.06,4.6,4.6,4.6h23.1c2.54,0,4.6-2.06,4.6-4.6h0c0-2.54-2.06-4.6-4.6-4.6Z"/>
            <path class="cls-49" d="m126.31,142.12c0,3.28-1.73,5.94-3.85,5.94s-3.85-2.66-3.85-5.94,1.73-5.94,3.85-5.94,3.85,2.66,3.85,5.94Z"/>
          </g>
          <g>
            <polygon class="cls-39" points="270.48 202.01 240.68 200.48 240.68 205.24 270.48 205.24 270.48 202.01"/>
            <path class="cls-42" d="m247,205.24h-57.45c-.67,0-1.26-.46-1.42-1.12l-9.06-37.34c-.22-.92.47-1.8,1.42-1.8h57.45c.67,0,1.26.46,1.42,1.12l9.06,37.34c.22.92-.47,1.8-1.42,1.8Z"/>
            <path class="cls-44" d="m245.14,203.49h-57.45c-.67,0-1.26-.46-1.42-1.11l-9.06-37.34c-.12-.48.02-.94.31-1.29.26-.31.66-.52,1.11-.52h57.45c.67,0,1.26.46,1.42,1.11l9.06,37.34c.22.92-.47,1.8-1.41,1.8Z"/>
            <path class="cls-53" d="m214.02,183.98c.75,1.97.04,4.07-1.59,4.7-1.63.63-3.57-.46-4.32-2.43s-.04-4.07,1.59-4.7c1.63-.63,3.57.46,4.32,2.43Z"/>
          </g>
          <g>
            <ellipse class="cls-43" cx="323.05" cy="106.21" rx="54.72" ry="48.8" transform="translate(-15.65 136.56) rotate(-23.32)"/>
            <rect class="cls-46" x="277.5" y="73.43" width="78.14" height="51.78" rx="4.2" ry="4.2"/>
            <g>
              <path class="cls-44" d="m301.28,115.87c-2.32,0-4.2-1.89-4.2-4.2v-7.52c0-.56-.22-1.09-.62-1.49l-1.51-1.51c-1.01-1.01-1.01-2.64,0-3.65l1.51-1.51c.4-.4.62-.93.62-1.49v-7.52c0-2.32,1.89-4.2,4.2-4.2v2.1c-1.16,0-2.1.94-2.1,2.1v7.52c0,1.12-.44,2.18-1.23,2.97l-1.51,1.51c-.19.19-.19.49,0,.68l1.51,1.51c.79.79,1.23,1.85,1.23,2.97v7.52c0,1.16.94,2.1,2.1,2.1v2.1Z"/>
              <path class="cls-44" d="m331.86,82.77c2.32,0,4.2,1.89,4.2,4.2v7.52c0,.56.22,1.09.62,1.49l1.51,1.51c1.01,1.01,1.01,2.64,0,3.65l-1.51,1.51c-.4.4-.62.93-.62,1.49v7.52c0,2.32-1.89,4.2-4.2,4.2v-2.1c1.16,0,2.1-.94,2.1-2.1v-7.52c0-1.12.44-2.18,1.23-2.97l1.51-1.51c.19-.19.19-.49,0-.68l-1.51-1.51c-.79-.79-1.23-1.85-1.23-2.97v-7.52c0-1.16-.94-2.1-2.1-2.1v-2.1Z"/>
              <path class="cls-44" d="m326.19,93.08c-1.77-1.77-4.64-1.77-6.41,0l-3.21,3.21-3.21-3.21c-1.77-1.77-4.64-1.77-6.41,0-1.77,1.77-1.77,4.64,0,6.41l3.21,3.21,6.41,6.41,6.41-6.41,3.21-3.21c1.77-1.77,1.77-4.64,0-6.41Z"/>
            </g>
          </g>
          <g>
            <path class="cls-10" d="m266.43,77.18v-2.02c0-.77-.62-1.39-1.39-1.39h-3.31c-.26-1.1-.7-2.14-1.28-3.08l2.34-2.34c.54-.54.54-1.42,0-1.96l-1.43-1.43c-.54-.54-1.42-.54-1.96,0l-2.34,2.34c-.94-.58-1.97-1.02-3.08-1.28v-3.31c0-.77-.62-1.39-1.39-1.39h-2.02c-.77,0-1.39.62-1.39,1.39v3.31c-1.1.26-2.14.7-3.08,1.28l-2.34-2.34c-.54-.54-1.42-.54-1.96,0l-1.43,1.43c-.54.54-.54,1.42,0,1.96l2.34,2.34c-.58.94-1.02,1.97-1.28,3.08h-3.31c-.77,0-1.39.62-1.39,1.39v2.02c0,.77.62,1.39,1.39,1.39h3.31c.26,1.1.7,2.14,1.28,3.08l-2.34,2.34c-.54.54-.54,1.42,0,1.96l1.43,1.43c.54.54,1.42.54,1.96,0l2.34-2.34c.94.58,1.97,1.02,3.08,1.28v3.31c0,.77.62,1.39,1.39,1.39h2.02c.77,0,1.39-.62,1.39-1.39v-3.31c1.1-.26,2.14-.7,3.08-1.28l2.34,2.34c.54.54,1.42.54,1.96,0l1.43-1.43c.54-.54.54-1.42,0-1.96l-2.34-2.34c.58-.94,1.02-1.97,1.28-3.08h3.31c.77,0,1.39-.62,1.39-1.39Zm-13.88,4.64c-3.91.65-7.27-2.7-6.62-6.62.39-2.37,2.3-4.28,4.68-4.68,3.91-.65,7.27,2.7,6.62,6.62-.39,2.37-2.3,4.28-4.67,4.68Z"/>
            <g>
              <path class="cls-44" d="m222.78,124.37h0c-.76,0-1.38-.59-1.47-1.35-.67-6.15-5.9-10.95-12.23-10.95-5.24,0-9.72,3.3-11.49,7.92l2.87.6-3.63,2.66-1.52,1.11h-.28l-1.09-1.88-2.15-3.71,2.88.6c2.07-5.97,7.74-10.26,14.4-10.26,7.85,0,14.33,5.96,15.16,13.59.1.88-.58,1.66-1.46,1.66Z"/>
              <path class="cls-44" d="m195.15,128.44h0c.76,0,1.38.59,1.47,1.35.67,6.15,5.9,10.95,12.23,10.95,5.24,0,9.72-3.3,11.49-7.92l-2.87-.6,3.63-2.66,1.52-1.11h.28l1.09,1.88,2.15,3.71-2.88-.6c-2.07,5.97-7.74,10.26-14.4,10.26-7.85,0-14.33-5.96-15.16-13.59-.1-.88.58-1.66,1.46-1.66Z"/>
              <polygon class="cls-44" points="195.33 124.37 195.13 124.51 195.05 124.37 195.33 124.37"/>
            </g>
          </g>
          <path class="cls-13" d="m338.94,326.43c-.22,4.65-4.23,8.24-8.89,8.24H84.08c-4.92,0-8.88-4.1-8.65-9.07.11-2.32,1.17-4.39,2.78-5.86,1.61-1.48,3.78-2.38,6.11-2.38h245.97c4.92,0,8.88,4.1,8.64,9.07Z"/>
          <g>
            <line class="cls-6" x1="331.86" y1="143.68" x2="381.29" y2="143.68"/>
            <line class="cls-1" x1="331.86" y1="152.49" x2="363.86" y2="152.49"/>
            <line class="cls-1" x1="331.86" y1="161.1" x2="363.86" y2="161.1"/>
            <circle class="cls-18" cx="331.86" cy="152.49" r="8.81"/>
          </g>
          <g>
            <line class="cls-1" x1="75.3" y1="191.93" x2="25.87" y2="191.93"/>
            <line class="cls-3" x1="75.3" y1="200.74" x2="43.31" y2="200.74"/>
            <line class="cls-7" x1="75.3" y1="209.35" x2="43.31" y2="209.35"/>
            <circle class="cls-17" cx="75.61" cy="191.78" r="8.81" transform="translate(-67.97 43.86) rotate(-22.63)"/>
          </g>
          <path class="cls-34" d="m246.55,201.68l-9.06-37.34c-.16-.65-.74-1.11-1.42-1.11h-57.45c-.45,0-.85.21-1.11.52l-.35-.19,10.58-57.31s82.97-41.19,99.4,8.09c1.03,3.08,28.42,42.76,28.92,45.48,7.53,40.81-69.51,41.88-69.51,41.88Z"/>
          <g>
            <path class="cls-4" d="m111.18,172.13s-15.64,83.05,51.55,92.04c51.02,6.82,106.76-34.08,92.85-61.3"/>
            <path class="cls-2" d="m135.31,170.45s-21.22,37.62,0,90.68c21.22,53.06,149.9,67.92,126.36-57.32"/>
            <circle class="cls-16" cx="235.41" cy="244.73" r="8.81"/>
            <circle class="cls-19" cx="165.82" cy="291.12" r="8.81"/>
          </g>
          <g>
            <path class="cls-26" d="m396.28,215.41c-5.49,14.27-12.6,27.88-20.92,40.41,1.34-9.76,10.7-73.93,27.51-94.79,2.12,13.55-1.92,35.54-6.59,54.38Z"/>
            <path class="cls-10" d="m379.9,248.68c-1.47,2.41-2.98,4.79-4.54,7.14-2.42,3.65-4.95,7.21-7.58,10.67-.05-.87-2.94-48.26,12.09-72.8,5.3,18.12,2.43,41.66.03,54.99Z"/>
            <g class="cls-14">
              <path d="m402.88,161.03c-3.5,13.01-6.8,26.07-9.81,39.19-1.51,6.56-2.95,13.14-4.23,19.74-1.28,6.6-2.47,13.23-3.23,19.89l-1.17-.14c.86-6.71,2.16-13.33,3.54-19.93,1.38-6.6,2.92-13.16,4.52-19.7,3.21-13.09,6.7-26.1,10.39-39.05Z"/>
            </g>
            <g class="cls-14">
              <path d="m379.88,193.69c-.91,5.13-1.66,10.28-2.33,15.44-.66,5.16-1.24,10.34-1.65,15.52-.39,5.19-.73,10.38-.75,15.57-.02,5.19.13,10.39.81,15.51l-1.17.15c-.58-5.22-.64-10.46-.52-15.68.12-5.22.55-10.42,1.05-15.61.5-5.19,1.19-10.36,1.94-15.51.77-5.15,1.62-10.29,2.63-15.4Z"/>
            </g>
          </g>
          <g>
            <path class="cls-10" d="m54.28,278.4s-23.39-14.26-32.17-41.97c24.45,3.12,46.26,43.3,46.26,43.3l-14.09-1.33Z"/>
            <g class="cls-14">
              <path d="m22.11,236.42c6.63,6.01,13.1,12.19,19.43,18.52,6.31,6.35,12.48,12.84,18.22,19.74l-.92.74c-5.55-6.98-11.57-13.6-17.73-20.07-6.18-6.46-12.51-12.78-19-18.93Z"/>
            </g>
            <path class="cls-52" d="m81.23,301.76c-.41.15-.87.19-1.34.14-5.18-4.46-10.92-9.93-16.79-16.43-28.85-16.5-56.85,18.27-56.85,18.27,0,0,11.66-40.55,44.33-33.71h0c32.67,6.84,30.65,31.74,30.65,31.74Z"/>
            <g class="cls-14">
              <path d="m6.25,303.74c3.99-6.32,8.83-12.12,14.41-17.14,5.58-4.94,12.15-9.11,19.58-10.69,3.69-.78,7.55-.85,11.27-.13,3.71.72,7.3,2.13,10.52,4.11.83.46,1.58,1.04,2.37,1.56l1.17.8,1.1.89c.73.6,1.47,1.18,2.19,1.8l1.04.98.97,1.05c1.26,1.44,2.32,3.07,3.12,4.82.8,1.77,1.36,3.6,1.48,5.63h-1.18c-.08-1.71-.58-3.54-1.31-5.17-.73-1.66-1.71-3.21-2.89-4.6l-.92-1.02-.98-.95c-.69-.61-1.42-1.19-2.12-1.79l-1.07-.89-1.14-.79c-.77-.51-1.49-1.1-2.3-1.55-3.13-1.97-6.6-3.38-10.21-4.14-3.61-.75-7.37-.74-11.01-.02-7.31,1.44-13.88,5.48-19.5,10.33-5.61,4.92-10.53,10.65-14.6,16.92Z"/>
            </g>
          </g>
        </g>
      </g>
    </g>
  </g>
</svg>